Coordinates
version=1
nRows=27
nColumns=17
inDegrees=yes

Units are S.I. units (second, meters, Newtons, ...)
If the header above contains a line with 'inDegrees', this indicates whether rotational values are in degrees (yes) or radians (no).

endheader
time	pelvis_tilt	pelvis_tx	pelvis_ty	hip_flexion_l	hip_flexion_r	knee_angle_l	knee_angle_r	ankle_angle_l	ankle_angle_r	lumbar_extension	FC_flexion	FC_adduction	FC_rotation	FC_tx	FC_ty	FC_tz
      7.53000000	    104.27889449	     -0.30837662	      1.04505920	     -2.06510959	    -16.81035560	    -11.85166200	     -0.60192439	     30.74588049	    -51.68099814	    -29.45518333	     87.24548802	     46.15411928	     87.34514324	      0.04674773	     -0.02377709	     -0.21449402
      7.54000000	    104.22972093	     -0.30836560	      1.04502347	     -1.99698879	    -16.74606363	    -11.87825666	     -0.63007567	     31.91698886	    -51.12118449	    -29.40953148	     85.92350381	     46.13716086	     87.35439459	      0.04481547	     -0.02645075	     -0.21447009
      7.55000000	    104.22704560	     -0.30837518	      1.04502359	     -2.01037882	    -16.73892372	    -11.85520580	     -0.64190319	     31.96898030	    -51.12970655	    -29.39917749	     85.95253794	     46.12435567	     87.34758950	      0.04464864	     -0.02677597	     -0.21443241
      7.56000000	    104.20010563	     -0.30839507	      1.04501330	     -1.97447490	    -16.71572724	    -11.88292300	     -0.61096067	     32.08486280	    -51.56982004	    -29.37595758	     85.92662681	     46.09722827	     87.30844901	      0.04450986	     -0.02703172	     -0.21440094
      7.57000000	    104.20782337	     -0.30840138	      1.04502547	     -1.98664223	    -16.73156867	    -11.88442959	     -0.59273693	     32.19648424	    -51.64815801	    -29.39118362	     85.83856622	     46.06344534	     87.22899830	      0.04450943	     -0.02698148	     -0.21430587
      7.58000000	    104.20866963	     -0.30841778	      1.04504355	     -1.99098416	    -16.73251537	    -11.88414864	     -0.59749608	     32.28033993	    -51.64648550	    -29.38109019	     85.93191648	     46.05837460	     87.21362774	      0.04424803	     -0.02742036	     -0.21438501
      7.59000000	    104.29772248	     -0.30842239	      1.04510860	     -2.10833827	    -16.84964564	    -11.84686229	     -0.58818263	     31.00563230	    -51.13327223	    -29.47343740	     87.15932879	     46.05480544	     87.24705044	      0.04665682	     -0.02390565	     -0.21431957
      7.60000000	    104.29438490	     -0.30841909	      1.04507931	     -2.10968449	    -16.84143345	    -11.82943510	     -0.59750797	     30.97044501	    -51.13702945	    -29.46743816	     87.11743386	     46.03763986	     87.22919897	      0.04693805	     -0.02356028	     -0.21430575
      7.61000000	    104.29038908	     -0.30840622	      1.04514352	     -2.11332982	    -16.84862642	    -11.81264597	     -0.58316068	     31.02064521	    -51.14185152	    -29.44099898	     87.16415688	     46.04430517	     87.22241261	      0.04686010	     -0.02368424	     -0.21430466
      7.62000000	    104.19484508	     -0.30837526	      1.04509703	     -1.98967664	    -16.71577971	    -11.83406791	     -0.62929698	     32.24125131	    -51.15732018	    -29.34293431	     86.13967827	     46.02411784	     87.12502544	      0.04459075	     -0.02693356	     -0.21433204
      7.63000000	    104.30029589	     -0.30841908	      1.04513586	     -2.11491272	    -16.85829220	    -11.80109862	     -0.58286318	     31.01798058	    -51.15798786	    -29.45541296	     87.29793044	     46.02354209	     87.08469560	      0.04705857	     -0.02330142	     -0.21432470
      7.64000000	    104.18940587	     -0.30837680	      1.04506207	     -1.97066757	    -16.71138824	    -11.84121816	     -0.62035443	     32.49869499	    -51.15510097	    -29.34747590	     85.90833639	     46.01874813	     87.02066018	      0.04444498	     -0.02703306	     -0.21438397
      7.65000000	    104.19766729	     -0.30838875	      1.04503944	     -1.96814055	    -16.71737242	    -11.86382146	     -0.61878603	     32.55169512	    -51.15211818	    -29.36470156	     85.95470387	     46.03549491	     86.97864015	      0.04441631	     -0.02704233	     -0.21451382
      7.66000000	    104.25973163	     -0.30838497	      1.04508661	     -2.05136197	    -16.79410839	    -11.83265713	     -0.60673536	     31.22618958	    -51.15105583	    -29.41999514	     87.42981287	     46.05347619	     86.87753409	      0.04687258	     -0.02347905	     -0.21466045
      7.67000000	    104.25929197	     -0.30838369	      1.04507704	     -2.04980288	    -16.78671063	    -11.84466871	     -0.62074293	     31.26007496	    -51.15096973	    -29.42835184	     87.45220866	     46.05159165	     86.86128821	      0.04689637	     -0.02344578	     -0.21476105
      7.68000000	    104.05969228	     -0.30838505	      1.04499004	     -1.76498365	    -16.53207631	    -11.95557502	     -0.67632111	     31.31943774	    -51.13025642	    -29.23475934	     87.43686791	     46.05754884	     86.86696915	      0.04665224	     -0.02374695	     -0.21480942
      7.69000000	    104.06331276	     -0.30839013	      1.04493751	     -1.76911026	    -16.53705400	    -11.94073350	     -0.67102149	     31.29308811	    -51.06744935	    -29.24203612	     87.37502126	     46.04420277	     86.90710018	      0.04669702	     -0.02354276	     -0.21486939
      7.70000000	    104.06172025	     -0.30839861	      1.04495292	     -1.75934510	    -16.53893318	    -11.97025475	     -0.66576144	     31.31615027	    -51.04968579	    -29.24106862	     87.40153350	     46.02596182	     86.88881339	      0.04675305	     -0.02350424	     -0.21485697
      7.71000000	    104.05665717	     -0.30841212	      1.04496265	     -1.76161336	    -16.53602427	    -11.95371944	     -0.66219460	     31.39374190	    -51.01970960	    -29.24098065	     87.46367502	     46.00634898	     86.79961378	      0.04667690	     -0.02370870	     -0.21481571
      7.72000000	    104.05170728	     -0.30841647	      1.04494152	     -1.75467129	    -16.52396390	    -11.94982551	     -0.67370857	     31.41183561	    -50.99841404	    -29.23896395	     87.51148981	     45.99613794	     86.76419894	      0.04667810	     -0.02368608	     -0.21482760
      7.73000000	    104.03405832	     -0.30845689	      1.04495564	     -1.73965311	    -16.50344124	    -11.94833017	     -0.65505446	     31.38739236	    -51.60771759	    -29.20810758	     87.50633432	     45.99787102	     86.80645932	      0.04675037	     -0.02356003	     -0.21486541
      7.74000000	    104.04299936	     -0.30842857	      1.04496536	     -1.73613635	    -16.51945150	    -11.98101571	     -0.66815441	     31.34927856	    -50.95908288	    -29.21881546	     87.54476532	     46.01381869	     86.84749258	      0.04693187	     -0.02339001	     -0.21486670
      7.75000000	    104.03866895	     -0.30845419	      1.04495923	     -1.73948018	    -16.51107590	    -11.96396526	     -0.66924768	     31.38576299	    -50.95892768	    -29.22382810	     87.58608791	     46.01518077	     86.89374555	      0.04666040	     -0.02380561	     -0.21482910
      7.76000000	    104.23208067	     -0.30844371	      1.04509046	     -2.02209066	    -16.76692869	    -11.86316235	     -0.60607569	     31.36108401	    -51.02395436	    -29.40330679	     87.44103310	     45.95466108	     86.94482478	      0.04713207	     -0.02327897	     -0.21466543
      7.77000000	    104.23167835	     -0.30845090	      1.04509611	     -2.02223872	    -16.76645217	    -11.85395240	     -0.60923545	     31.37178080	    -51.02429435	    -29.40301043	     87.44774380	     45.90630143	     86.95187944	      0.04709120	     -0.02321799	     -0.21447327
      7.78000000	    104.22834520	     -0.30845803	      1.04509272	     -2.02625040	    -16.75969359	    -11.84495418	     -0.61742589	     31.40551434	    -51.02558999	    -29.40356095	     87.46696554	     45.85624516	     86.95716679	      0.04712832	     -0.02324015	     -0.21430089
      7.79000000	    104.04220579	     -0.30849411	      1.04497211	     -1.75274815	    -16.51891915	    -11.95957258	     -0.64768914	     31.52693159	    -51.43107385	    -29.23271809	     87.46953702	     45.80026026	     86.92781566	      0.04685725	     -0.02374107	     -0.21412287
